<svg xmlns="http://www.w3.org/2000/svg" width="1000" height="837" viewBox="0 0 1000 837" xmlns:c2pa="http://c2pa.org/manifest"><metadata><c2pa:manifest>AAAWgmp1bWIAAAAeanVtZGMycGEAEQAQgAAAqgA4m3EDYzJwYQAAABZcanVtYgAAAEdqdW1kYzJtYQARABCAAACqADibcQN1cm46YzJwYTo1M2ZmMDM0Zi04YjA5LTRhYjUtOGQ3Mi02ZTFlMzhjMzllYzAAAAADl2p1bWIAAAApanVtZGMyYXMAEQAQgAAAqgA4m3EDYzJwYS5hc3NlcnRpb25zAAAAALxqdW1iAAAARGp1bWRjYm9yABEAEIAAAKoAOJtxE2MycGEuaW5ncmVkaWVudC52MwAAAAAYYzJzaNVOuqH4sjRA+ZOjtSDS6CwAAABwY2JvcqNpZGM6Zm9ybWF0bWltYWdlL3N2Zyt4bWxqaW5zdGFuY2VJRHgseG1wOmlpZDpiMjg4YjFhNi0xM2E3LTQwNWMtYjg2OC1jNWIxYWI3MzM5MGZscmVsYXRpb25zaGlwaHBhcmVudE9mAAAB4mp1bWIAAABBanVtZGNib3IAEQAQgAAAqgA4m3ETYzJwYS5hY3Rpb25zLnYyAAAAABhjMnNoACfdbbRMt1kYLfK9V81LiQAAAZljYm9yomdhY3Rpb25zgqJmYWN0aW9ua2MycGEub3BlbmVkanBhcmFtZXRlcnOha2luZ3JlZGllbnRzgaJjdXJseC1zZWxmI2p1bWJmPWMycGEuYXNzZXJ0aW9ucy9jMnBhLmluZ3JlZGllbnQudjNkaGFzaFgg0NEJ/49VNtQioHEgYwZEYlBgxfhjRLwtJFuh6YfF8oCkZmFjdGlvbngdY29tLmFudGhyb3BpYy5jbGF1ZGUucHJvdmlkZWRqcGFyYW1ldGVyc6F4H2NvbS5hbnRocm9waWMub3JpZ2luLWNvbmZpZGVuY2VndW5rbm93bmtkZXNjcmlwdGlvbnhmQ2xhdWRlIHByb3ZpZGVkIHRoaXMgZmlsZSBhdCB0aGUgcmVxdWVzdCBvZiBhIHVzZXIgYW5kIG1heSBoYXZlIGNyZWF0ZWQgb3IgbW9kaWZpZWQgdGhlIGZpbGUgY29udGVudHMubXNvZnR3YXJlQWdlbnShZG5hbWVmQ2xhdWRlcmFsbEFjdGlvbnNJbmNsdWRlZPUAAADIanVtYgAAAEBqdW1kY2JvcgARABCAAACqADibcRNjMnBhLmhhc2guZGF0YQAAAAAYYzJzaCB+41efYrJYyBUfl1hBnWIAAACAY2JvcqVjYWxnZnNoYTI1NmNwYWRNAAAAAAAAAAAAAAAAAGRoYXNoWCD06M/Un4igonuRoGCfcGy+2lsu3NhO7/mMN5s1mLJAl2RuYW1lbmp1bWJmIG1hbmlmZXN0amV4Y2x1c2lvbnOBomVzdGFydBiYZmxlbmd0aBkeBAAAAj5qdW1iAAAAJ2p1bWRjMmNsABEAEIAAAKoAOJtxA2MycGEuY2xhaW0udjIAAAACD2Nib3KlY2FsZ2ZzaGEyNTZpc2lnbmF0dXJleE1zZWxmI2p1bWJmPS9jMnBhL3VybjpjMnBhOjUzZmYwMzRmLThiMDktNGFiNS04ZDcyLTZlMWUzOGMzOWVjMC9jMnBhLnNpZ25hdHVyZWppbnN0YW5jZUlEeCx4bXA6aWlkOjcwMDI5MDNkLWYzOTUtNGYxMi1hMjJhLTAxOTdkZTBhMzU1YnJjcmVhdGVkX2Fzc2VydGlvbnODomN1cmx4LXNlbGYjanVtYmY9YzJwYS5hc3NlcnRpb25zL2MycGEuaW5ncmVkaWVudC52M2RoYXNoWCDQ0Qn/j1U21CKgcSBjBkRiUGDF+GNEvC0kW6Hph8XygKJjdXJseCpzZWxmI2p1bWJmPWMycGEuYXNzZXJ0aW9ucy9jMnBhLmFjdGlvbnMudjJkaGFzaFggo4fNQqX7Eezofk0QcHEfbewQSpt0m+SAKgYEbgNVojaiY3VybHgpc2VsZiNqdW1iZj1jMnBhLmFzc2VydGlvbnMvYzJwYS5oYXNoLmRhdGFkaGFzaFgg/jXN+Qfb61k0ozVXQ0LPDNpS6ITJrMjMiLhx/UhtQGp0Y2xhaW1fZ2VuZXJhdG9yX2luZm+jZG5hbWVvQW50aHJvcGljIEZpbGVzZ3ZlcnNpb25lMS4wLjBrc3BlY1ZlcnNpb25lMi40LjAAABA4anVtYgAAAChqdW1kYzJjcwARABCAAACqADibcQNjMnBhLnNpZ25hdHVyZQAAABAIY2JvctKEWQISogEmGCFZAgowggIGMIIBjaADAgECAhRA5aAK7sI50L64g/oGQgU9Z1UTADAKBggqhkjOPQQDAzBJMRcwFQYDVQQKEw5BbnRocm9waWMsIFBCQzEuMCwGA1UEAxMlQW50aHJvcGljIENvbnRlbnQgQ3JlZGVudGlhbHMgUm9vdCBDQTAeFw0yNjA4MDcxODQzNTZaFw0yODA4MDYxOTQzNTZaMEQxFzAVBgNVBAoTDkFudGhyb3BpYywgUEJDMSkwJwYDVQQDEyBBbnRocm9waWMgQ2xhdWRlIENvbnRlbnQgU2lnbmluZzBZMBMGByqGSM49AgEGCCqGSM49AwEHA0IABJh6CmvLUBgFFNU0vUKlOVtE6djd17L5SuwX0LemFisBM3dkd/3cyjxFA3Qo5S46fX0/ihY0VZ7mfb9KF703t5OjWDBWMA4GA1UdDwEB/wQEAwIHgDAVBgNVHSUEDjAMBgorBgEEAYPoXgIBMAwGA1UdEwEB/wQCMAAwHwYDVR0jBBgwFoAUzlHiBIFOZFsj+OPEz5o+nMHXXMIwCgYIKoZIzj0EAwMDZwAwZAIwMXMdFJ4BetLLVY7ORuE9noqbbAZOZn/aArXyTwFAZfKrPzxF2vPoJNf1+UCdg1XGAjBwX1zd9WGqYkqmL5SFqw1QySjr1zJfpJM9+1rdDwSPLMOPOjKuiXjoU/pUUeG9RwmhY3BhZFkNngAAAAAAAAAAAAAAAAAAAAAAAAAAAAAAAAAAAAAAAAAAAAAAAAAAAAAAAAAAAAAAAAAAAAAAAAAAAAAAAAAAAAAAAAAAAAAAAAAAAAAAAAAAAAAAAAAAAAAAAAAAAAAAAAAAAAAAAAAAAAAAAAAAAAAAAAAAAAAAAAAAAAAAAAAAAAAAAAAAAAAAAAAAAAAAAAAAAAAAAAAAAAAAAAAAAAAAAAAAAAAAAAAAAAAAAAAAAAAAAAAAAAAAAAAAAAAAAAAAAAAAAAAAAAAAAAAAAAAAAAAAAAAAAAAAAAAAAAAAAAAAAAAAAAAAAAAAAAAAAAAAAAAAAAAAAAAAAAAAAAAAAAAAAAAAAAAAAAAAAAAAAAAAAAAAAAAAAAAAAAAAAAAAAAAAAAAAAAAAAAAAAAAAAAAAAAAAAAAAAAAAAAAAAAAAAAAAAAAAAAAAAAAAAAAAAAAAAAAAAAAAAAAAAAAAAAAAAAAAAAAAAAAAAAAAAAAAAAAAAAAAAAAAAAAAAAAAAAAAAAAAAAAAAAAAAAAAAAAAAAAAAAAAAAAAAAAAAAAAAAAAAAAAAAAAAAAAAAAAAAAAAAAAAAAAAAAAAAAAAAAAAAAAAAAAAAAAAAAAAAAAAAAAAAAAAAAAAAAAAAAAAAAAAAAAAAAAAAAAAAAAAAAAAAAAAAAAAAAAAAAAAAAAAAAAAAAAAAAAAAAAAAAAAAAAAAAAAAAAAAAAAAAAAAAAAAAAAAAAAAAAAAAAAAAAAAAAAAAAAAAAAAAAAAAAAAAAAAAAAAAAAAAAAAAAAAAAAAAAAAAAAAAAAAAAAAAAAAAAAAAAAAAAAAAAAAAAAAAAAAAAAAAAAAAAAAAAAAAAAAAAAAAAAAAAAAAAAAAAAAAAAAAAAAAAAAAAAAAAAAAAAAAAAAAAAAAAAAAAAAAAAAAAAAAAAAAAAAAAAAAAAAAAAAAAAAAAAAAAAAAAAAAAAAAAAAAAAAAAAAAAAAAAAAAAAAAAAAAAAAAAAAAAAAAAAAAAAAAAAAAAAAAAAAAAAAAAAAAAAAAAAAAAAAAAAAAAAAAAAAAAAAAAAAAAAAAAAAAAAAAAAAAAAAAAAAAAAAAAAAAAAAAAAAAAAAAAAAAAAAAAAAAAAAAAAAAAAAAAAAAAAAAAAAAAAAAAAAAAAAAAAAAAAAAAAAAAAAAAAAAAAAAAAAAAAAAAAAAAAAAAAAAAAAAAAAAAAAAAAAAAAAAAAAAAAAAAAAAAAAAAAAAAAAAAAAAAAAAAAAAAAAAAAAAAAAAAAAAAAAAAAAAAAAAAAAAAAAAAAAAAAAAAAAAAAAAAAAAAAAAAAAAAAAAAAAAAAAAAAAAAAAAAAAAAAAAAAAAAAAAAAAAAAAAAAAAAAAAAAAAAAAAAAAAAAAAAAAAAAAAAAAAAAAAAAAAAAAAAAAAAAAAAAAAAAAAAAAAAAAAAAAAAAAAAAAAAAAAAAAAAAAAAAAAAAAAAAAAAAAAAAAAAAAAAAAAAAAAAAAAAAAAAAAAAAAAAAAAAAAAAAAAAAAAAAAAAAAAAAAAAAAAAAAAAAAAAAAAAAAAAAAAAAAAAAAAAAAAAAAAAAAAAAAAAAAAAAAAAAAAAAAAAAAAAAAAAAAAAAAAAAAAAAAAAAAAAAAAAAAAAAAAAAAAAAAAAAAAAAAAAAAAAAAAAAAAAAAAAAAAAAAAAAAAAAAAAAAAAAAAAAAAAAAAAAAAAAAAAAAAAAAAAAAAAAAAAAAAAAAAAAAAAAAAAAAAAAAAAAAAAAAAAAAAAAAAAAAAAAAAAAAAAAAAAAAAAAAAAAAAAAAAAAAAAAAAAAAAAAAAAAAAAAAAAAAAAAAAAAAAAAAAAAAAAAAAAAAAAAAAAAAAAAAAAAAAAAAAAAAAAAAAAAAAAAAAAAAAAAAAAAAAAAAAAAAAAAAAAAAAAAAAAAAAAAAAAAAAAAAAAAAAAAAAAAAAAAAAAAAAAAAAAAAAAAAAAAAAAAAAAAAAAAAAAAAAAAAAAAAAAAAAAAAAAAAAAAAAAAAAAAAAAAAAAAAAAAAAAAAAAAAAAAAAAAAAAAAAAAAAAAAAAAAAAAAAAAAAAAAAAAAAAAAAAAAAAAAAAAAAAAAAAAAAAAAAAAAAAAAAAAAAAAAAAAAAAAAAAAAAAAAAAAAAAAAAAAAAAAAAAAAAAAAAAAAAAAAAAAAAAAAAAAAAAAAAAAAAAAAAAAAAAAAAAAAAAAAAAAAAAAAAAAAAAAAAAAAAAAAAAAAAAAAAAAAAAAAAAAAAAAAAAAAAAAAAAAAAAAAAAAAAAAAAAAAAAAAAAAAAAAAAAAAAAAAAAAAAAAAAAAAAAAAAAAAAAAAAAAAAAAAAAAAAAAAAAAAAAAAAAAAAAAAAAAAAAAAAAAAAAAAAAAAAAAAAAAAAAAAAAAAAAAAAAAAAAAAAAAAAAAAAAAAAAAAAAAAAAAAAAAAAAAAAAAAAAAAAAAAAAAAAAAAAAAAAAAAAAAAAAAAAAAAAAAAAAAAAAAAAAAAAAAAAAAAAAAAAAAAAAAAAAAAAAAAAAAAAAAAAAAAAAAAAAAAAAAAAAAAAAAAAAAAAAAAAAAAAAAAAAAAAAAAAAAAAAAAAAAAAAAAAAAAAAAAAAAAAAAAAAAAAAAAAAAAAAAAAAAAAAAAAAAAAAAAAAAAAAAAAAAAAAAAAAAAAAAAAAAAAAAAAAAAAAAAAAAAAAAAAAAAAAAAAAAAAAAAAAAAAAAAAAAAAAAAAAAAAAAAAAAAAAAAAAAAAAAAAAAAAAAAAAAAAAAAAAAAAAAAAAAAAAAAAAAAAAAAAAAAAAAAAAAAAAAAAAAAAAAAAAAAAAAAAAAAAAAAAAAAAAAAAAAAAAAAAAAAAAAAAAAAAAAAAAAAAAAAAAAAAAAAAAAAAAAAAAAAAAAAAAAAAAAAAAAAAAAAAAAAAAAAAAAAAAAAAAAAAAAAAAAAAAAAAAAAAAAAAAAAAAAAAAAAAAAAAAAAAAAAAAAAAAAAAAAAAAAAAAAAAAAAAAAAAAAAAAAAAAAAAAAAAAAAAAAAAAAAAAAAAAAAAAAAAAAAAAAAAAAAAAAAAAAAAAAAAAAAAAAAAAAAAAAAAAAAAAAAAAAAAAAAAAAAAAAAAAAAAAAAAAAAAAAAAAAAAAAAAAAAAAAAAAAAAAAAAAAAAAAAAAAAAAAAAAAAAAAAAAAAAAAAAAAAAAAAAAAAAAAAAAAAAAAAAAAAAAAAAAAAAAAAAAAAAAAAAAAAAAAAAAAAAAAAAAAAAAAAAAAAAAAAAAAAAAAAAAAAAAAAAAAAAAAAAAAAAAAAAAAAAAAAAAAAAAAAAAAAAAAAAAAAAAAAAAAAAAAAAAAAAAAAAAAAAAAAAAAAAAAAAAAAAAAAAAAAAAAAAAAAAAAAAAAAAAAAAAAAAAAAAAAAAAAAAAAAAAAAAAAAAAAAAAAAAAAAAAAAAAAAAAAAAAAAAAAAAAAAAAAAAAAAAAAAAAAAAAAAAAAAAAAAAAAAAAAAAAAAAAAAAAAAAAAAAAAAAAAAAAAAAAAAAAAAAAAAAAAAAAAAAAAAAAAAAAAAAAAAAAAAAAAAAAAAAAAAAAAAAAAAAAAAAAAAAAAAAAAAAAAAAAAAAAAAAAAAAAAAAAAAAAAAAAAAAAAAAAAAAAAAAAAAAAAAAAAAAAAAAAAAAAAAAAAAAAAAAAAAAAAAAAAAAAAAAAAAAAAAAAAAAAAAAAAAAAAAAAAAAAAAAAAAAAAAAAAAAAAAAAAAAAAAAAAAAAAAAAAAAAAAAAAAAAAAAAAAAAAAAAAAAAAAAAAAAAAAAAAAAAAAAAAAAAAAAAAAAAAAAAAAAAAAAAAAAAAAAAAAAAAAAAAAAAAAAAAAAAAAAAAAAAAAAAAAAAAAAAAAAAAAAAAAAAAAAAAAAAAAAAAAAAAAAAAAAAAAAAAAAAAAAAAAAAAAAAAAAAAAAAAAAAAAAAAAAAAAAAAAAAAAAAAAAAAAAAAAAAAAAAAAAAAAAAAAAAAAAAAAAAAAAAAAAAAAAAAAAAAAAAAAAAAAAAAAAAAAAAAAAAAAAAAAAAAAAAAAAAAAAAAAAAAAAAAAAAAAAAAAAAAAAAAAAAAAAAAAAAAAAAAAAAAAAAAAAAAAAAAAAAAAAAAAAAAAAAAAAAAAAAAAAAAAAAAAAAAAAAAAAAAAAAAAAAAAAAAAAAAAAAAAAAAAAAAAAAAAAAAAAAAAAAAAAAAAAAAAAAAAAAAAAAAAAAAAAAAAAAAAAAAAAAAAAAAAAAAAAAAAAAAAAAAAAAAAAAAAAAAAAAAAAAAAAAAAAAAAAAAAAAAAAAAAAAAAAAAAAAAAAAAAAAAAAAAAAAAAAAAAAAAAAAAAAAAAAAAAAAAAAAAAAAAAAAAAAAAAAAAAAAAAAAAAAAAAAAAAAAAAAAAAAAAAAAAAAAAAAAAAAAAAAAAAAAAAAAAAAAAAAAAAAAAAAAAAAAAAAAAAAAAAAAAAAAAAAAAAAAAAAAAAAAAAAAAAAAAAAAAAAAAAAAAAAAAAAAAAAAAAAAAAAAAAAAAAAAAAAAAAAAAAAAAAAAAAAAAAAAAAAAAAAAAAAAAAAAAAAAAAAAAAAAAAAAAAAAAAAAAAAAAAAAAAAAAAAAAAAAAAAAAAAAAAAAAAAAAAAAAAAAAAAAAAAAAPZYQKl+4xSFFC7cUe6GeE82SRfGzBmdkHBJlmoWD3hQX3XMAbzgD/VzsakccYl584FjVrRZ2OvmVdtFlr4MMzhqtt4=</c2pa:manifest></metadata>
<defs>
  <radialGradient id="bgA" cx="50%" cy="42%" r="72%"><stop offset="0" stop-color="#2b1233"/><stop offset="1" stop-color="#0b050c"/></radialGradient>
  <linearGradient id="gA" x1="0" y1="0" x2="0" y2="1"><stop offset="0" stop-color="#ffd166"/><stop offset="1" stop-color="#f5a623"/></linearGradient>
  <filter id="g" x="-30%" y="-30%" width="160%" height="160%"><feGaussianBlur stdDeviation="14"/></filter>
  <filter id="glow" x="-5%" y="-5%" width="110%" height="110%"><feGaussianBlur stdDeviation="4"/></filter>
</defs>

<rect x="8" y="8" width="984" height="821" rx="10" fill="none" stroke="#f5a623" stroke-width="3" opacity="0.6" filter="url(#glow)"/>
<rect x="10" y="10" width="980" height="817" rx="8" fill="#140b14" stroke="#f5a623" stroke-opacity="0.85" stroke-width="1.5"/>
<clipPath id="lc"><circle cx="256" cy="256" r="256"/></clipPath>
<g transform="translate(34,26) scale(0.15)" clip-path="url(#lc)"><rect width="512" height="512" fill="url(#bgA)"/>
<g stroke="#e34fb0" stroke-opacity="0.14" stroke-width="1"><path d="M0 128H512M0 256H512M0 384H512M128 0V512M256 0V512M384 0V512"/></g>
<circle cx="256" cy="256" r="196" fill="none" stroke="#f5a623" stroke-opacity="0.35" stroke-width="3" stroke-dasharray="2 12" stroke-linecap="round"/>
<circle cx="256" cy="256" r="168" fill="none" stroke="#e34fb0" stroke-opacity="0.35" stroke-width="2"/>
<path d="M156 384L256 126L356 384" fill="none" stroke="#f5a623" stroke-width="40" stroke-linecap="round" stroke-linejoin="round" opacity="0.6" filter="url(#g)"/>
<path d="M156 384L256 126L356 384" fill="none" stroke="url(#gA)" stroke-width="34" stroke-linecap="round" stroke-linejoin="round"/>
<circle cx="256" cy="322" r="15" fill="#e34fb0"/>
<circle cx="256" cy="322" r="26" fill="none" stroke="#e34fb0" stroke-opacity="0.5" stroke-width="3"/>
</g>
<text x="52" y="52" font-family="ui-monospace,SFMono-Regular,Menlo,Consolas,'Liberation Mono','DejaVu Sans Mono',monospace" font-size="14" fill="#f5a623" xml:space="preserve">                quiet code, loud results.</text>
<text x="52" y="72" font-family="ui-monospace,SFMono-Regular,Menlo,Consolas,'Liberation Mono','DejaVu Sans Mono',monospace" font-size="14" fill="#f5a623" xml:space="preserve">                ship first, explain later.</text>
<g font-family="ui-monospace,SFMono-Regular,Menlo,Consolas,'Liberation Mono','DejaVu Sans Mono',monospace" font-size="14">
<text y="132" font-size="15" fill="#f5a623" x="50.0 59.0 68.0 77.0 86.0 95.0 104.0 113.0 122.0 131.0 140.0 149.0 158.0 167.0 176.0 185.0 194.0 203.0 212.0 221.0 230.0 239.0 248.0 257.0 266.0 275.0 284.0 293.0 302.0 311.0 320.0 329.0 338.0 347.0 356.0 365.0 374.0 383.0 392.0 401.0 410.0 419.0 428.0 437.0 446.0 455.0 464.0 473.0 482.0 491.0 500.0 509.0 518.0 527.0 536.0 545.0 554.0 563.0" xml:space="preserve"> █████╗ ████████╗██╗  ██╗ █████╗ ██████╗ ██╗   ██╗ █████╗ </text>
<text y="149" font-size="15" fill="#f5a623" x="50.0 59.0 68.0 77.0 86.0 95.0 104.0 113.0 122.0 131.0 140.0 149.0 158.0 167.0 176.0 185.0 194.0 203.0 212.0 221.0 230.0 239.0 248.0 257.0 266.0 275.0 284.0 293.0 302.0 311.0 320.0 329.0 338.0 347.0 356.0 365.0 374.0 383.0 392.0 401.0 410.0 419.0 428.0 437.0 446.0 455.0 464.0 473.0 482.0 491.0 500.0 509.0 518.0 527.0 536.0 545.0 554.0 563.0" xml:space="preserve">██╔══██╗╚══██╔══╝██║  ██║██╔══██╗██╔══██╗██║   ██║██╔══██╗</text>
<text y="166" font-size="15" fill="#f5a623" x="50.0 59.0 68.0 77.0 86.0 95.0 104.0 113.0 122.0 131.0 140.0 149.0 158.0 167.0 176.0 185.0 194.0 203.0 212.0 221.0 230.0 239.0 248.0 257.0 266.0 275.0 284.0 293.0 302.0 311.0 320.0 329.0 338.0 347.0 356.0 365.0 374.0 383.0 392.0 401.0 410.0 419.0 428.0 437.0 446.0 455.0 464.0 473.0 482.0 491.0 500.0 509.0 518.0 527.0 536.0 545.0 554.0 563.0" xml:space="preserve">███████║   ██║   ███████║███████║██████╔╝██║   ██║███████║</text>
<text y="183" font-size="15" fill="#f5a623" x="50.0 59.0 68.0 77.0 86.0 95.0 104.0 113.0 122.0 131.0 140.0 149.0 158.0 167.0 176.0 185.0 194.0 203.0 212.0 221.0 230.0 239.0 248.0 257.0 266.0 275.0 284.0 293.0 302.0 311.0 320.0 329.0 338.0 347.0 356.0 365.0 374.0 383.0 392.0 401.0 410.0 419.0 428.0 437.0 446.0 455.0 464.0 473.0 482.0 491.0 500.0 509.0 518.0 527.0 536.0 545.0 554.0 563.0" xml:space="preserve">██╔══██║   ██║   ██╔══██║██╔══██║██╔══██╗╚██╗ ██╔╝██╔══██║</text>
<text y="200" font-size="15" fill="#f5a623" x="50.0 59.0 68.0 77.0 86.0 95.0 104.0 113.0 122.0 131.0 140.0 149.0 158.0 167.0 176.0 185.0 194.0 203.0 212.0 221.0 230.0 239.0 248.0 257.0 266.0 275.0 284.0 293.0 302.0 311.0 320.0 329.0 338.0 347.0 356.0 365.0 374.0 383.0 392.0 401.0 410.0 419.0 428.0 437.0 446.0 455.0 464.0 473.0 482.0 491.0 500.0 509.0 518.0 527.0 536.0 545.0 554.0 563.0" xml:space="preserve">██║  ██║   ██║   ██║  ██║██║  ██║██║  ██║ ╚████╔╝ ██║  ██║</text>
<text y="217" font-size="15" fill="#f5a623" x="50.0 59.0 68.0 77.0 86.0 95.0 104.0 113.0 122.0 131.0 140.0 149.0 158.0 167.0 176.0 185.0 194.0 203.0 212.0 221.0 230.0 239.0 248.0 257.0 266.0 275.0 284.0 293.0 302.0 311.0 320.0 329.0 338.0 347.0 356.0 365.0 374.0 383.0 392.0 401.0 410.0 419.0 428.0 437.0 446.0 455.0 464.0 473.0 482.0 491.0 500.0 509.0 518.0 527.0 536.0 545.0 554.0 563.0" xml:space="preserve">╚═╝  ╚═╝   ╚═╝   ╚═╝  ╚═╝╚═╝  ╚═╝╚═╝  ╚═╝  ╚═══╝  ╚═╝  ╚═╝</text>
<text x="50" y="265" xml:space="preserve"><tspan fill="#f5a623">Just remember, what happens in the terminal, stays in the terminal!</tspan></text>
<text x="50" y="284" xml:space="preserve"><tspan fill="#f5a623">Ship quietly. Question every unverified commit.</tspan></text>
<text x="50" y="322" xml:space="preserve"><tspan fill="#ece6df">Last login: Sat Sep 19 2026 from Mumbai, India</tspan></text>
<text x="50" y="360" xml:space="preserve"><tspan fill="#f5a623">atharva</tspan><tspan fill="#e34fb0">@dev</tspan><tspan fill="#ece6df">:~$ </tspan><tspan fill="#ece6df">uptime -p</tspan></text>
<text x="50" y="379" xml:space="preserve"><tspan fill="#ece6df">up 24/7</tspan></text>
<text x="50" y="417" xml:space="preserve"><tspan fill="#f5a623">atharva</tspan><tspan fill="#e34fb0">@dev</tspan><tspan fill="#ece6df">:~$ </tspan><tspan fill="#ece6df">ls</tspan></text>
<text x="50" y="436" xml:space="preserve"><tspan fill="#ece6df">about  tech  interests  contact</tspan></text>
<text x="50" y="474" xml:space="preserve"><tspan fill="#f5a623">atharva</tspan><tspan fill="#e34fb0">@dev</tspan><tspan fill="#ece6df">:~$ </tspan><tspan fill="#ece6df">cat ./about</tspan></text>
<text x="50" y="493" xml:space="preserve"><tspan fill="#ece6df">Location : </tspan><tspan fill="#f5a623">Mumbai, India</tspan></text>
<text x="50" y="531" xml:space="preserve"><tspan fill="#f5a623">atharva</tspan><tspan fill="#e34fb0">@dev</tspan><tspan fill="#ece6df">:~$ </tspan><tspan fill="#ece6df">cat ./tech | jq</tspan></text>
<text x="50" y="550" xml:space="preserve"><tspan fill="#ece6df">[</tspan><tspan fill="#a5d6a7">"C"</tspan><tspan fill="#ece6df">, </tspan><tspan fill="#a5d6a7">"Typescript"</tspan><tspan fill="#ece6df">, </tspan><tspan fill="#a5d6a7">"SQL"</tspan><tspan fill="#ece6df">,</tspan><tspan fill="#a5d6a7">"Python"</tspan><tspan fill="#ece6df">]</tspan></text>
<text x="50" y="588" xml:space="preserve"><tspan fill="#f5a623">atharva</tspan><tspan fill="#e34fb0">@dev</tspan><tspan fill="#ece6df">:~$ </tspan><tspan fill="#ece6df">cat ./interests | jq</tspan></text>
<text x="50" y="607" xml:space="preserve"><tspan fill="#ece6df">{</tspan></text>
<text x="50" y="626" xml:space="preserve"><tspan fill="#ece6df">  </tspan><tspan fill="#7aa2f7">"general"</tspan><tspan fill="#ece6df">: [</tspan><tspan fill="#a5d6a7">"F1"</tspan><tspan fill="#ece6df">, </tspan><tspan fill="#a5d6a7">"UFC"</tspan><tspan fill="#ece6df">, </tspan><tspan fill="#a5d6a7">"Gaming"</tspan><tspan fill="#ece6df">, </tspan><tspan fill="#a5d6a7">"Gadgets"</tspan><tspan fill="#ece6df">, </tspan><tspan fill="#a5d6a7">"Music"</tspan><tspan fill="#ece6df">, </tspan><tspan fill="#a5d6a7">"Cars"</tspan><tspan fill="#ece6df">],</tspan></text>
<text x="50" y="645" xml:space="preserve"><tspan fill="#ece6df">  </tspan><tspan fill="#7aa2f7">"tech"</tspan><tspan fill="#ece6df">: [</tspan><tspan fill="#a5d6a7">"Machine Learning"</tspan><tspan fill="#ece6df">, </tspan><tspan fill="#a5d6a7">"Embedded Systems"</tspan><tspan fill="#ece6df">, </tspan><tspan fill="#a5d6a7">"Full Stack"</tspan><tspan fill="#ece6df">]</tspan></text>
<text x="50" y="664" xml:space="preserve"><tspan fill="#ece6df">}</tspan></text>
<text x="50" y="702" xml:space="preserve"><tspan fill="#f5a623">atharva</tspan><tspan fill="#e34fb0">@dev</tspan><tspan fill="#ece6df">:~$ </tspan><tspan fill="#ece6df">cat ./contact</tspan></text>
<text x="50" y="721" xml:space="preserve"><tspan fill="#ece6df">Email  : </tspan><tspan fill="#e34fb0">atharva.rd2915@gmail.com</tspan></text>
<text x="50" y="740" xml:space="preserve"><tspan fill="#ece6df">GitHub : </tspan><tspan fill="#f5a623">https://github.com/Atharva05111</tspan></text>
<text x="50" y="778" xml:space="preserve"><tspan fill="#f5a623">atharva</tspan><tspan fill="#e34fb0">@dev</tspan><tspan fill="#ece6df">:~$ </tspan><tspan fill="#ece6df"></tspan></text>
<rect x="176.4" y="766" width="8" height="15" fill="#f5a623"><animate attributeName="opacity" values="1;1;0;0" keyTimes="0;0.5;0.5;1" dur="1.1s" repeatCount="indefinite"/></rect>
</g>
</svg>